<svg xmlns="http://www.w3.org/2000/svg" viewBox="0 0 200 200" width="200" height="200"><ellipse cx="100" cy="190" rx="60" ry="8" fill="#6b4c8a" opacity=".12"/><path d="M150,160 C196,170 200,120 176,110 C180,136 166,146 150,146Z" fill="#c4a8ff" stroke="#9f80e6" stroke-width="4" stroke-linejoin="round"/><path d="M60,100 C28,78 20,104 30,126 C42,120 52,112 60,100Z" fill="#ffc2dc" stroke="#f08ab5" stroke-width="3.5" stroke-linejoin="round"/><path d="M140,100 C172,78 180,104 170,126 C158,120 148,112 140,100Z" fill="#ffc2dc" stroke="#f08ab5" stroke-width="3.5" stroke-linejoin="round"/><ellipse cx="100" cy="124" rx="64" ry="58" fill="#d2baff" stroke="#9f80e6" stroke-width="4"/><ellipse cx="100" cy="152" rx="36" ry="28" fill="#f3eaff"/><path d="M64,78 L58,46 L84,66Z" fill="#ffe27a" stroke="#f0b93c" stroke-width="3" stroke-linejoin="round"/><path d="M136,78 L142,46 L116,66Z" fill="#ffe27a" stroke="#f0b93c" stroke-width="3" stroke-linejoin="round"/><path d="M88,68 l6,-12 l6,12 l6,-12 l6,12" fill="#ffc2dc" stroke="#f08ab5" stroke-width="2.5" stroke-linejoin="round"/><ellipse cx="57" cy="126" rx="10" ry="6" fill="#ff9db8" opacity=".75"/><ellipse cx="143" cy="126" rx="10" ry="6" fill="#ff9db8" opacity=".75"/><circle cx="74" cy="112" r="9" fill="#fff" stroke="#4a3560" stroke-width="2.5"/><path d="M74,112 m0,-2 a2.5,2.5 0 1 1 -2.5,2.5 a5,5 0 1 1 5,5 a7.5,7.5 0 1 1 -7.5,-7.5" fill="none" stroke="#4a3560" stroke-width="2" stroke-linecap="round"/><circle cx="126" cy="112" r="9" fill="#fff" stroke="#4a3560" stroke-width="2.5"/><path d="M126,112 m0,-2 a2.5,2.5 0 1 1 -2.5,2.5 a5,5 0 1 1 5,5 a7.5,7.5 0 1 1 -7.5,-7.5" fill="none" stroke="#4a3560" stroke-width="2" stroke-linecap="round"/><ellipse cx="100" cy="131" rx="6" ry="5" fill="#7a3d5c"/><path d="M102,132 q4,12 9,4 q-1,-5 -9,-4Z" fill="#ff8fa8"/><polygon points="42.0,21.0 44.4,26.7 50.6,27.2 45.9,31.3 47.3,37.3 42.0,34.0 36.7,37.3 38.1,31.3 33.4,27.2 39.6,26.7" fill="#ffe27a" stroke="#fff" stroke-width="1.5"/><polygon points="100.0,-1.0 101.9,3.5 106.7,3.8 103.0,7.0 104.1,11.7 100.0,9.2 95.9,11.7 97.0,7.0 93.3,3.8 98.1,3.5" fill="#ffb3d9" stroke="#fff" stroke-width="1.5"/><polygon points="158.0,21.0 160.4,26.7 166.6,27.2 161.9,31.3 163.3,37.3 158.0,34.0 152.7,37.3 154.1,31.3 149.4,27.2 155.6,26.7" fill="#bde0ff" stroke="#fff" stroke-width="1.5"/></svg>