<svg xmlns="http://www.w3.org/2000/svg" viewBox="0 0 200 200" width="200" height="200"><ellipse cx="100" cy="190" rx="60" ry="8" fill="#6b4c8a" opacity=".12"/><path d="M150,160 C196,170 200,120 176,110 C180,136 166,146 150,146Z" fill="#c4a8ff" stroke="#9f80e6" stroke-width="4" stroke-linejoin="round"/><path d="M60,100 C28,78 20,104 30,126 C42,120 52,112 60,100Z" fill="#ffc2dc" stroke="#f08ab5" stroke-width="3.5" stroke-linejoin="round"/><path d="M140,100 C172,78 180,104 170,126 C158,120 148,112 140,100Z" fill="#ffc2dc" stroke="#f08ab5" stroke-width="3.5" stroke-linejoin="round"/><ellipse cx="100" cy="124" rx="64" ry="58" fill="#d2baff" stroke="#9f80e6" stroke-width="4"/><ellipse cx="100" cy="152" rx="36" ry="28" fill="#f3eaff"/><path d="M64,78 L58,46 L84,66Z" fill="#ffe27a" stroke="#f0b93c" stroke-width="3" stroke-linejoin="round"/><path d="M136,78 L142,46 L116,66Z" fill="#ffe27a" stroke="#f0b93c" stroke-width="3" stroke-linejoin="round"/><path d="M88,68 l6,-12 l6,12 l6,-12 l6,12" fill="#ffc2dc" stroke="#f08ab5" stroke-width="2.5" stroke-linejoin="round"/><ellipse cx="57" cy="126" rx="10" ry="6" fill="#ff9db8" opacity=".75"/><ellipse cx="143" cy="126" rx="10" ry="6" fill="#ff9db8" opacity=".75"/><path d="M66,104 L79,112 L66,120" fill="none" stroke="#4a3560" stroke-width="4" stroke-linecap="round" stroke-linejoin="round"/><path d="M134,104 L121,112 L134,120" fill="none" stroke="#4a3560" stroke-width="4" stroke-linecap="round" stroke-linejoin="round"/><ellipse cx="100" cy="131" rx="6" ry="5" fill="#7a3d5c"/></svg>