<svg xmlns="http://www.w3.org/2000/svg" viewBox="0 0 200 200" width="200" height="200"><ellipse cx="100" cy="190" rx="60" ry="8" fill="#6b4c8a" opacity=".12"/><path d="M38,176 L38,96 C38,54 68,32 100,32 C132,32 162,54 162,96 L162,176 C152,164 142,184 131,174 C120,164 110,184 100,174 C90,164 80,184 69,174 C58,164 48,184 38,176Z" fill="#f6f2ff" stroke="#cfc3ee" stroke-width="4" stroke-linejoin="round"/><ellipse cx="30" cy="124" rx="12" ry="8" fill="#f6f2ff" stroke="#cfc3ee" stroke-width="3.5" transform="rotate(25 30 124)"/><ellipse cx="170" cy="124" rx="12" ry="8" fill="#f6f2ff" stroke="#cfc3ee" stroke-width="3.5" transform="rotate(-25 170 124)"/><ellipse cx="59" cy="114" rx="10" ry="6" fill="#ff9db8" opacity=".75"/><ellipse cx="141" cy="114" rx="10" ry="6" fill="#ff9db8" opacity=".75"/><ellipse cx="76" cy="100" rx="8.0" ry="10.0" fill="#4a3560"/><circle cx="73.5" cy="96.5" r="3.2" fill="#fff"/><circle cx="78.5" cy="103.0" r="1.5" fill="#fff" opacity=".8"/><ellipse cx="124" cy="100" rx="8.0" ry="10.0" fill="#4a3560"/><circle cx="121.5" cy="96.5" r="3.2" fill="#fff"/><circle cx="126.5" cy="103.0" r="1.5" fill="#fff" opacity=".8"/><path d="M67,83 L83,88" stroke="#4a3560" stroke-width="3.2" stroke-linecap="round"/><path d="M133,83 L117,88" stroke="#4a3560" stroke-width="3.2" stroke-linecap="round"/><path d="M92,116 Q96,123 100,116 Q104,123 108,116" fill="none" stroke="#4a3560" stroke-width="3" stroke-linecap="round"/></svg>