<svg xmlns="http://www.w3.org/2000/svg" viewBox="0 0 200 200" width="200" height="200"><ellipse cx="100" cy="190" rx="60" ry="8" fill="#6b4c8a" opacity=".12"/><path d="M66,128 h68 v38 C134,184 66,184 66,166Z" fill="#fff3e0" stroke="#e8cfa8" stroke-width="4" stroke-linejoin="round"/><path d="M16,126 C16,60 64,30 100,30 C136,30 184,60 184,126 C184,138 150,142 100,142 C50,142 16,138 16,126Z" fill="#ffb3c9" stroke="#f08aa8" stroke-width="4" stroke-linejoin="round"/><circle cx="56" cy="88" r="12" fill="#fff"/><circle cx="108" cy="64" r="10" fill="#fff"/><circle cx="150" cy="96" r="13" fill="#fff"/><circle cx="92" cy="104" r="7" fill="#fff"/><ellipse cx="63" cy="166" rx="10" ry="6" fill="#ff9db8" opacity=".75"/><ellipse cx="137" cy="166" rx="10" ry="6" fill="#ff9db8" opacity=".75"/><path d="M72,144 L85,152 L72,160" fill="none" stroke="#4a3560" stroke-width="4" stroke-linecap="round" stroke-linejoin="round"/><path d="M128,144 L115,152 L128,160" fill="none" stroke="#4a3560" stroke-width="4" stroke-linecap="round" stroke-linejoin="round"/><ellipse cx="100" cy="171" rx="6" ry="5" fill="#7a3d5c"/></svg>