<svg xmlns="http://www.w3.org/2000/svg" viewBox="0 0 200 200" width="200" height="200"><ellipse cx="100" cy="190" rx="60" ry="8" fill="#6b4c8a" opacity=".12"/><path d="M28,150 C22,92 66,50 100,50 C134,50 178,92 172,150 C170,176 140,186 100,186 C60,186 30,176 28,150Z" fill="#a8e6ff" stroke="#6ec6ec" stroke-width="4" stroke-linejoin="round"/><ellipse cx="68" cy="88" rx="16" ry="9" fill="#fff" opacity=".6" transform="rotate(-30 68 88)"/><path d="M100,50 C96,36 108,30 106,20 C116,30 118,44 108,52Z" fill="#a8e6ff" stroke="#6ec6ec" stroke-width="3" stroke-linejoin="round"/><ellipse cx="59" cy="142" rx="10" ry="6" fill="#ff9db8" opacity=".75"/><ellipse cx="141" cy="142" rx="10" ry="6" fill="#ff9db8" opacity=".75"/><circle cx="76" cy="128" r="9" fill="#fff" stroke="#4a3560" stroke-width="2.5"/><path d="M76,128 m0,-2 a2.5,2.5 0 1 1 -2.5,2.5 a5,5 0 1 1 5,5 a7.5,7.5 0 1 1 -7.5,-7.5" fill="none" stroke="#4a3560" stroke-width="2" stroke-linecap="round"/><circle cx="124" cy="128" r="9" fill="#fff" stroke="#4a3560" stroke-width="2.5"/><path d="M124,128 m0,-2 a2.5,2.5 0 1 1 -2.5,2.5 a5,5 0 1 1 5,5 a7.5,7.5 0 1 1 -7.5,-7.5" fill="none" stroke="#4a3560" stroke-width="2" stroke-linecap="round"/><ellipse cx="100" cy="147" rx="6" ry="5" fill="#7a3d5c"/><path d="M102,148 q4,12 9,4 q-1,-5 -9,-4Z" fill="#ff8fa8"/><polygon points="42.0,21.0 44.4,26.7 50.6,27.2 45.9,31.3 47.3,37.3 42.0,34.0 36.7,37.3 38.1,31.3 33.4,27.2 39.6,26.7" fill="#ffe27a" stroke="#fff" stroke-width="1.5"/><polygon points="100.0,-1.0 101.9,3.5 106.7,3.8 103.0,7.0 104.1,11.7 100.0,9.2 95.9,11.7 97.0,7.0 93.3,3.8 98.1,3.5" fill="#ffb3d9" stroke="#fff" stroke-width="1.5"/><polygon points="158.0,21.0 160.4,26.7 166.6,27.2 161.9,31.3 163.3,37.3 158.0,34.0 152.7,37.3 154.1,31.3 149.4,27.2 155.6,26.7" fill="#bde0ff" stroke="#fff" stroke-width="1.5"/></svg>