<svg xmlns="http://www.w3.org/2000/svg" viewBox="0 0 200 200" width="200" height="200"><ellipse cx="100" cy="190" rx="60" ry="8" fill="#6b4c8a" opacity=".12"/><path d="M28,150 C22,92 66,50 100,50 C134,50 178,92 172,150 C170,176 140,186 100,186 C60,186 30,176 28,150Z" fill="#a8e6ff" stroke="#6ec6ec" stroke-width="4" stroke-linejoin="round"/><ellipse cx="68" cy="88" rx="16" ry="9" fill="#fff" opacity=".6" transform="rotate(-30 68 88)"/><path d="M100,50 C96,36 108,30 106,20 C116,30 118,44 108,52Z" fill="#a8e6ff" stroke="#6ec6ec" stroke-width="3" stroke-linejoin="round"/><ellipse cx="59" cy="142" rx="10" ry="6" fill="#ff9db8" opacity=".75"/><ellipse cx="141" cy="142" rx="10" ry="6" fill="#ff9db8" opacity=".75"/><ellipse cx="76" cy="128" rx="8.0" ry="10.0" fill="#4a3560"/><circle cx="73.5" cy="124.5" r="3.2" fill="#fff"/><circle cx="78.5" cy="131.0" r="1.5" fill="#fff" opacity=".8"/><ellipse cx="124" cy="128" rx="8.0" ry="10.0" fill="#4a3560"/><circle cx="121.5" cy="124.5" r="3.2" fill="#fff"/><circle cx="126.5" cy="131.0" r="1.5" fill="#fff" opacity=".8"/><path d="M67,111 L83,116" stroke="#4a3560" stroke-width="3.2" stroke-linecap="round"/><path d="M133,111 L117,116" stroke="#4a3560" stroke-width="3.2" stroke-linecap="round"/><path d="M92,144 Q96,151 100,144 Q104,151 108,144" fill="none" stroke="#4a3560" stroke-width="3" stroke-linecap="round"/></svg>