<svg xmlns="http://www.w3.org/2000/svg" viewBox="-15 0 230 220" width="230" height="220"><ellipse cx="100" cy="209" rx="54" ry="8" fill="#6b4c8a" opacity=".12"/><g transform="rotate(-9 72 56)"><ellipse cx="72" cy="40" rx="17" ry="42" fill="#ffffff" stroke="#e5d3f2" stroke-width="3.5" stroke-linejoin="round"/><ellipse cx="72" cy="44" rx="8" ry="28" fill="#ffc2d9"/></g><g transform="rotate(9 128 56)"><ellipse cx="128" cy="40" rx="17" ry="42" fill="#ffffff" stroke="#e5d3f2" stroke-width="3.5" stroke-linejoin="round"/><ellipse cx="128" cy="44" rx="8" ry="28" fill="#ffc2d9"/></g><line x1="150" y1="158" x2="176" y2="104" stroke="#c99a6b" stroke-width="5" stroke-linecap="round"/><polygon points="180.0,75.0 184.7,85.5 196.2,86.7 187.6,94.5 190.0,105.8 180.0,100.0 170.0,105.8 172.4,94.5 163.8,86.7 175.3,85.5" fill="#ffe27a" stroke="#f0b93c" stroke-width="2.5" stroke-linejoin="round"/><ellipse cx="82" cy="198" rx="17" ry="9" fill="#ffffff" stroke="#e5d3f2" stroke-width="3.5" stroke-linejoin="round"/><ellipse cx="118" cy="198" rx="17" ry="9" fill="#ffffff" stroke="#e5d3f2" stroke-width="3.5" stroke-linejoin="round"/><path d="M60,176 C58,150 78,140 100,140 C122,140 142,150 140,176 C138,194 62,194 60,176Z" fill="#ffd1e8" stroke="#ffffff" stroke-width="3" stroke-linejoin="round"/><path d="M78,150 Q100,164 122,150" fill="none" stroke="#fff" stroke-width="3" opacity=".8"/><circle cx="100" cy="162" r="6" fill="#ffe27a" stroke="#f0b93c" stroke-width="2"/><circle cx="58" cy="164" r="11" fill="#ffffff" stroke="#e5d3f2" stroke-width="3.5" stroke-linejoin="round"/><circle cx="148" cy="158" r="11" fill="#ffffff" stroke="#e5d3f2" stroke-width="3.5" stroke-linejoin="round"/><ellipse cx="100" cy="100" rx="58" ry="52" fill="#ffffff" stroke="#e5d3f2" stroke-width="3.5" stroke-linejoin="round"/><path d="M120,58 l-14,-10 l2,18 z M120,58 l14,-10 l-2,18 z" fill="#ff8fc0" stroke="#e8609a" stroke-width="2" stroke-linejoin="round"/><circle cx="120" cy="58" r="4.5" fill="#ffd1e8" stroke="#e8609a" stroke-width="2"/><ellipse cx="60" cy="118" rx="10" ry="6" fill="#ff9db8" opacity=".75"/><ellipse cx="140" cy="118" rx="10" ry="6" fill="#ff9db8" opacity=".75"/><ellipse cx="74" cy="100" rx="8.0" ry="10.0" fill="#4a3560"/><circle cx="71.5" cy="96.5" r="3.2" fill="#fff"/><circle cx="76.5" cy="103.0" r="1.5" fill="#fff" opacity=".8"/><ellipse cx="126" cy="100" rx="8.0" ry="10.0" fill="#4a3560"/><circle cx="123.5" cy="96.5" r="3.2" fill="#fff"/><circle cx="128.5" cy="103.0" r="1.5" fill="#fff" opacity=".8"/><path d="M92,124 Q96,131 100,124 Q104,131 108,124" fill="none" stroke="#4a3560" stroke-width="3" stroke-linecap="round"/></svg>